<?xml version="1.0" standalone="no"?><!DOCTYPE svg PUBLIC "-//W3C//DTD SVG 1.1//EN" "http://www.w3.org/Graphics/SVG/1.1/DTD/svg11.dtd"><svg t="1544249614767" class="icon" style="" viewBox="0 0 1024 1024" version="1.1" xmlns="http://www.w3.org/2000/svg" p-id="21480" xmlns:xlink="http://www.w3.org/1999/xlink" width="32" height="32"><defs><style type="text/css"></style></defs><path d="M517.851 137.935c175.469 0 317.899 138.964 317.899 309.834 0 170.205-142.431 309.807-317.899 309.807-175.598 0-318.951-139.603-318.951-309.807 0-170.527 143.35-309.834 318.951-309.834zM517.851 213.242c-133.087 0-241.207 105.593-241.207 234.528 0 128.55 108.715 233.859 241.207 233.859 131.747 0 240.157-105.308 240.157-233.859-0.001-128.935-107.794-234.528-240.157-234.528zM390.888 815.131c-12.746 0-23.167-10.074-23.167-23.237 0-12.251 10.423-22.364 23.167-22.364h253.010c12.768 0 23.316 10.113 23.316 22.364 0 13.164-10.548 23.237-23.316 23.237h-253.010zM459.964 878.091c-12.746 0-23.451-10.41-23.451-23.28 0-12.269 10.706-22.341 23.451-22.341h114.567c13.185 0 23.451 10.074 23.451 22.341 0 12.87-10.265 23.28-23.451 23.28h-114.567z" fill="#E60012" p-id="21481"></path></svg>