<?xml version="1.0" standalone="no"?><!DOCTYPE svg PUBLIC "-//W3C//DTD SVG 1.1//EN" "http://www.w3.org/Graphics/SVG/1.1/DTD/svg11.dtd"><svg t="1544263429604" class="icon" style="" viewBox="0 0 1024 1024" version="1.1" xmlns="http://www.w3.org/2000/svg" p-id="21835" xmlns:xlink="http://www.w3.org/1999/xlink" width="32" height="32"><defs><style type="text/css"></style></defs><path d="M511.89 898.55a103.07 103.07 0 0 1-73-30.25l-166-165.88c-131.73-131.8-131.73-346.2 0-477.94a338 338 0 1 1 477.97 477.94L585 868.3a103.11 103.11 0 0 1-73.11 30.25z m0-703A266.41 266.41 0 0 0 322.47 274C218 378.45 218 548.37 322.47 652.87l166 165.88c12.59 12.59 34.42 12.52 47 0l165.84-165.88a267.92 267.92 0 0 0-189.42-457.34z" fill="#42494F" p-id="21836"></path><path d="M511.89 617.08a153.21 153.21 0 0 1-108.67-45c-59.88-59.88-59.88-157.4 0-217.41s157.47-59.95 217.41 0c59.88 60 59.88 157.53 0 217.41a153.36 153.36 0 0 1-108.74 45z m0-237.26a83.59 83.59 0 1 0 59.19 24.43 83.36 83.36 0 0 0-59.19-24.43z" fill="#42494F" p-id="21837"></path></svg>